<svg width="193" height="24" viewBox="0 0 193 24" fill="none" xmlns="http://www.w3.org/2000/svg">
<path d="M13.0332 11.199L9.03591 11.2034C9.0299 11.2035 9.02399 11.2018 9.01893 11.1986C9.01386 11.1953 9.00985 11.1907 9.0074 11.1852C9.00495 11.1797 9.00416 11.1736 9.00514 11.1677C9.00611 11.1618 9.0088 11.1563 9.01288 11.1519L15.0812 4.31276C15.1097 4.2806 15.1039 4.25684 15.0637 4.24149C9.90313 2.18363 4.20754 5.75557 3.70211 11.2352C3.10898 17.6522 9.22667 22.52 15.329 21.0224C19.7649 19.9337 23.6899 15.9736 24.01 11.2999C24.0107 11.2918 24.0151 11.2871 24.0231 11.2856C24.0312 11.2841 24.0407 11.2845 24.0517 11.2867C24.0612 11.2882 24.0659 11.294 24.0659 11.3042C24.317 17.5656 20.0456 23.0474 13.7755 23.8905C9.9711 24.4014 5.86633 23.1153 3.23287 20.2374C0.854866 17.639 -0.353322 14.0857 0.0907039 10.5335C0.766062 5.12187 5.05393 0.733142 10.5006 0.0950608C14.1574 -0.333981 17.3938 0.689288 20.21 3.16487C20.248 3.19849 20.2502 3.23431 20.2166 3.27231L15.7095 8.34079C15.7052 8.34549 15.7025 8.35131 15.7015 8.35755C15.7005 8.36379 15.7013 8.37018 15.7039 8.37596C15.7064 8.38174 15.7106 8.38667 15.7158 8.39015C15.7211 8.39363 15.7273 8.39553 15.7336 8.3956L19.5259 8.38573C19.532 8.38573 19.538 8.38762 19.543 8.39115C19.548 8.39469 19.5518 8.39968 19.5538 8.40545C19.5559 8.41123 19.5561 8.41749 19.5544 8.42338C19.5527 8.42928 19.5493 8.43451 19.5445 8.43836L6.75986 18.4372C6.75725 18.4396 6.75376 18.441 6.75016 18.4409C6.74656 18.4408 6.74315 18.4392 6.74068 18.4366C6.73821 18.434 6.73687 18.4305 6.73698 18.4269C6.73708 18.4233 6.73861 18.4199 6.74122 18.4174L13.0727 11.2867C13.1246 11.2282 13.1114 11.199 13.0332 11.199Z" fill="url(#paint0_linear_338_111)"/>
<path d="M32.0762 1.58175H46.5248V4.65399H35.2397V11.0114H45.3081V14.0836H35.2397V20.5627H46.9507V23.635H32.0762V1.58175Z" fill="white"/>
<path d="M50.3659 0H53.4381V23.635H50.3659V0Z" fill="white"/>
<path d="M63.2872 23.9392C61.8271 23.9392 60.5698 23.6553 59.5153 23.0875C58.4608 22.4994 57.6497 21.6984 57.0819 20.6844C56.5141 19.6502 56.2302 18.4842 56.2302 17.1863C56.2302 15.929 56.5445 14.7934 57.1731 13.7795C57.822 12.7452 58.6839 11.924 59.7587 11.3156C60.8335 10.7072 62.0299 10.403 63.348 10.403C65.0515 10.403 66.4608 10.8999 67.5762 11.8935C68.7118 12.8669 69.4722 14.2459 69.8575 16.0304L59.4849 19.6198L58.7549 17.8555L67.0895 14.8137L66.4507 15.2395C66.2073 14.5906 65.822 14.033 65.2948 13.5665C64.7676 13.0798 64.0477 12.8365 63.1351 12.8365C61.9995 12.8365 61.0667 13.2319 60.3366 14.0228C59.6269 14.7934 59.272 15.7871 59.272 17.0038C59.272 18.3016 59.6573 19.346 60.4279 20.1369C61.1985 20.9278 62.1719 21.3232 63.348 21.3232C63.8956 21.3232 64.4228 21.2319 64.9298 21.0494C65.4368 20.8466 65.9133 20.583 66.3594 20.2586L67.7587 22.5399C67.1098 22.9658 66.3899 23.3105 65.599 23.5741C64.8284 23.8175 64.0578 23.9392 63.2872 23.9392Z" fill="white"/>
<path d="M77.2413 24L70.093 10.9202H73.7128L78.4276 20.8061L76.5417 20.7148L80.8307 10.9202H84.2375L77.3934 24H77.2413Z" fill="white"/>
<path d="M91.0633 23.9392C89.8669 23.9392 88.782 23.6857 87.8086 23.1787C86.8352 22.6717 86.0646 21.9316 85.4968 20.9582C84.929 19.9645 84.6451 18.7376 84.6451 17.2776C84.6451 15.858 84.9391 14.6413 85.5272 13.6274C86.1356 12.5932 86.9265 11.8023 87.8998 11.2548C88.8935 10.6869 89.9683 10.403 91.1242 10.403C92.3409 10.403 93.3447 10.6565 94.1356 11.1635C94.9265 11.6705 95.5348 12.2788 95.9607 12.9886L95.7782 13.4753L96.0823 10.9202H98.9112V23.635H95.839V20.4106L96.1432 21.1711C96.0621 21.3333 95.8897 21.5665 95.6261 21.8707C95.3624 22.1749 95.0177 22.4892 94.5918 22.8137C94.166 23.1179 93.6489 23.3815 93.0405 23.6046C92.4524 23.8276 91.7934 23.9392 91.0633 23.9392ZM91.8846 21.4144C92.8986 21.4144 93.7503 21.1508 94.4398 20.6236C95.1495 20.076 95.6159 19.3359 95.839 18.403V15.7871C95.5957 14.9556 95.0988 14.2662 94.3485 13.7186C93.6185 13.1711 92.7668 12.8973 91.7934 12.8973C91.0633 12.8973 90.3941 13.0798 89.7858 13.4449C89.1774 13.7896 88.6907 14.2864 88.3257 14.9354C87.9607 15.564 87.7782 16.294 87.7782 17.1255C87.7782 17.9366 87.9607 18.6667 88.3257 19.3156C88.711 19.9645 89.218 20.4816 89.8466 20.8669C90.4752 21.2319 91.1546 21.4144 91.8846 21.4144Z" fill="white"/>
<path d="M104.016 5.35361H107.119V10.9506H110.526V13.3536H107.119V23.635H104.016V13.3536H101.765V10.9506H104.016V5.35361Z" fill="white"/>
<path d="M118.959 23.9392C117.498 23.9392 116.241 23.6553 115.187 23.0875C114.132 22.4994 113.321 21.6984 112.753 20.6844C112.185 19.6502 111.901 18.4842 111.901 17.1863C111.901 15.929 112.216 14.7934 112.844 13.7795C113.493 12.7452 114.355 11.924 115.43 11.3156C116.505 10.7072 117.701 10.403 119.019 10.403C120.723 10.403 122.132 10.8999 123.248 11.8935C124.383 12.8669 125.144 14.2459 125.529 16.0304L115.156 19.6198L114.426 17.8555L122.761 14.8137L122.122 15.2395C121.879 14.5906 121.493 14.033 120.966 13.5665C120.439 13.0798 119.719 12.8365 118.806 12.8365C117.671 12.8365 116.738 13.2319 116.008 14.0228C115.298 14.7934 114.943 15.7871 114.943 17.0038C114.943 18.3016 115.329 19.346 116.099 20.1369C116.87 20.9278 117.843 21.3232 119.019 21.3232C119.567 21.3232 120.094 21.2319 120.601 21.0494C121.108 20.8466 121.585 20.583 122.031 20.2586L123.43 22.5399C122.781 22.9658 122.061 23.3105 121.27 23.5741C120.5 23.8175 119.729 23.9392 118.959 23.9392Z" fill="white"/>
<path d="M131.834 1.58175H134.997V20.5627H146.07V23.635H131.834V1.58175Z" fill="white"/>
<path d="M154.526 23.9392C153.329 23.9392 152.244 23.6857 151.271 23.1787C150.298 22.6717 149.527 21.9316 148.959 20.9582C148.391 19.9645 148.108 18.7376 148.108 17.2776C148.108 15.858 148.402 14.6413 148.99 13.6274C149.598 12.5932 150.389 11.8023 151.362 11.2548C152.356 10.6869 153.431 10.403 154.587 10.403C155.803 10.403 156.807 10.6565 157.598 11.1635C158.389 11.6705 158.997 12.2788 159.423 12.9886L159.241 13.4753L159.545 10.9202H162.374V23.635H159.301V20.4106L159.606 21.1711C159.525 21.3333 159.352 21.5665 159.089 21.8707C158.825 22.1749 158.48 22.4892 158.054 22.8137C157.628 23.1179 157.111 23.3815 156.503 23.6046C155.915 23.8276 155.256 23.9392 154.526 23.9392ZM155.347 21.4144C156.361 21.4144 157.213 21.1508 157.902 20.6236C158.612 20.076 159.078 19.3359 159.301 18.403V15.7871C159.058 14.9556 158.561 14.2662 157.811 13.7186C157.081 13.1711 156.229 12.8973 155.256 12.8973C154.526 12.8973 153.857 13.0798 153.248 13.4449C152.64 13.7896 152.153 14.2864 151.788 14.9354C151.423 15.564 151.241 16.294 151.241 17.1255C151.241 17.9366 151.423 18.6667 151.788 19.3156C152.173 19.9645 152.68 20.4816 153.309 20.8669C153.938 21.2319 154.617 21.4144 155.347 21.4144Z" fill="white"/>
<path d="M174.14 23.9392C172.964 23.9392 171.95 23.706 171.098 23.2395C170.247 22.7528 169.557 22.1343 169.03 21.384L169.334 20.5019V23.635H166.262V0H169.334V13.7186L169.243 12.5932C169.75 11.9442 170.459 11.417 171.372 11.0114C172.305 10.6058 173.359 10.403 174.536 10.403C175.671 10.403 176.705 10.6768 177.638 11.2243C178.571 11.7516 179.321 12.512 179.889 13.5057C180.457 14.4994 180.741 15.6857 180.741 17.0646C180.741 18.5044 180.427 19.7414 179.798 20.7757C179.19 21.7896 178.388 22.5703 177.395 23.1179C176.401 23.6654 175.316 23.9392 174.14 23.9392ZM173.471 21.3536C174.262 21.3536 174.972 21.1711 175.6 20.8061C176.229 20.4208 176.715 19.9037 177.06 19.2548C177.425 18.6058 177.608 17.8758 177.608 17.0646C177.608 16.2535 177.425 15.5336 177.06 14.9049C176.695 14.2763 176.198 13.7795 175.57 13.4144C174.961 13.0291 174.262 12.8365 173.471 12.8365C172.457 12.8365 171.575 13.1001 170.824 13.6274C170.074 14.1546 169.577 14.8542 169.334 15.7262V18.403C169.598 19.2548 170.084 19.9645 170.794 20.5323C171.524 21.0798 172.416 21.3536 173.471 21.3536Z" fill="white"/>
<path d="M187.209 23.9087C186.277 23.9087 185.384 23.7465 184.533 23.4221C183.681 23.0773 182.961 22.5906 182.373 21.962L183.681 20.1977C184.208 20.7047 184.756 21.09 185.324 21.3536C185.912 21.6172 186.459 21.749 186.966 21.749C187.554 21.749 188.071 21.6375 188.517 21.4144C188.964 21.1711 189.187 20.7757 189.187 20.2281C189.187 19.782 189.035 19.4373 188.73 19.1939C188.446 18.9506 188.081 18.7478 187.635 18.5855C187.189 18.4233 186.713 18.2712 186.206 18.1293C185.151 17.7845 184.34 17.2978 183.772 16.6692C183.225 16.0203 182.951 15.2598 182.951 14.3878C182.951 13.7186 183.113 13.09 183.438 12.5019C183.782 11.8935 184.299 11.4068 184.989 11.0418C185.678 10.6565 186.53 10.4639 187.544 10.4639C188.436 10.4639 189.237 10.5754 189.947 10.7985C190.657 11.0013 191.316 11.3561 191.924 11.8631L190.738 13.7186C190.373 13.3536 189.937 13.0798 189.43 12.8973C188.943 12.6945 188.497 12.583 188.092 12.5627C187.544 12.5627 187.068 12.6945 186.662 12.9582C186.256 13.2015 186.054 13.5361 186.054 13.962C186.054 14.3878 186.196 14.7326 186.479 14.9962C186.763 15.2395 187.128 15.4423 187.574 15.6046C188.041 15.7465 188.507 15.8986 188.974 16.0608C189.907 16.365 190.677 16.7807 191.286 17.308C191.914 17.8352 192.228 18.6058 192.228 19.6198C192.228 20.3904 192.046 21.1001 191.681 21.749C191.316 22.398 190.758 22.9252 190.008 23.3308C189.278 23.7161 188.345 23.9087 187.209 23.9087Z" fill="white"/>
<defs>
<linearGradient id="paint0_linear_338_111" x1="9.26337e-07" y1="27.1599" x2="28.6509" y2="-4.17961" gradientUnits="userSpaceOnUse">
<stop stop-color="#FFDD95"/>
<stop offset="1" stop-color="#FB5F52"/>
</linearGradient>
</defs>
</svg>
